HIERARCHY
ROOT Hips
{
	OFFSET -0.179506 -22.333345 2.821913
	CHANNELS 6 Xposition Yposition Zposition Zrotation Yrotation Xrotation 
	JOINT LeftUpLeg
	{
		OFFSET 6.951974 -9.140623 -0.681533
		CHANNELS 3 Zrotation Yrotation Xrotation
		JOINT LeftLeg
		{
			OFFSET 3.427654 -37.519855 -0.449580
			CHANNELS 3 Zrotation Yrotation Xrotation
			JOINT LeftFoot
			{
				OFFSET -1.359570 -39.796059 -4.369333
				CHANNELS 3 Zrotation Yrotation Xrotation
				JOINT LeftToe
				{
					OFFSET 2.635814 -5.579078 11.928840
					CHANNELS 3 Zrotation Yrotation Xrotation
					End Site
					{
						OFFSET 0.000000 0.000000 0.000000
					}
				}
			}
		}
	}
	JOINT RightUpLeg
	{
		OFFSET -6.767048 -9.052170 -0.431982
		CHANNELS 3 Zrotation Yrotation Xrotation
		JOINT RightLeg
		{
			OFFSET -3.829005 -38.256897 -0.885003
			CHANNELS 3 Zrotation Yrotation Xrotation
			JOINT RightFoot
			{
				OFFSET 1.577377 -39.841461 -4.231180
				CHANNELS 3 Zrotation Yrotation Xrotation
				JOINT RightToe
				{
					OFFSET -2.537174 -4.814398 12.334795
					CHANNELS 3 Zrotation Yrotation Xrotation
					End Site
					{
						OFFSET 0.000000 0.000000 0.000000
					}
				}
			}
		}
	}
	JOINT Spine
	{
		OFFSET -0.253288 10.896323 -2.669631
		CHANNELS 3 Zrotation Yrotation Xrotation
		JOINT Spine1
		{
			OFFSET 0.548704 13.518043 0.109247
			CHANNELS 3 Zrotation Yrotation Xrotation
			JOINT Spine2
			{
				OFFSET 0.145701 5.292222 2.542457
				CHANNELS 3 Zrotation Yrotation Xrotation
				JOINT Neck
				{
					OFFSET -0.277840 21.387037 -4.285703
					CHANNELS 3 Zrotation Yrotation Xrotation
					JOINT Head
					{
						OFFSET 0.515184 6.496960 5.134897
						CHANNELS 3 Zrotation Yrotation Xrotation
						End Site
						{
							OFFSET 0.000000 0.000000 0.000000
						}
					}
				}
				JOINT LeftShoulder
				{
					OFFSET 7.884473 12.174932 -3.408961
					CHANNELS 3 Zrotation Yrotation Xrotation
					JOINT LeftArm
					{
						OFFSET 9.097692 3.046888 -0.886815
						CHANNELS 3 Zrotation Yrotation Xrotation
						JOINT LeftForeArm
						{
							OFFSET 25.961220 -1.277207 -2.745643
							CHANNELS 3 Zrotation Yrotation Xrotation
							JOINT LeftHand
							{
								OFFSET 24.923361 0.898606 -0.117091
								CHANNELS 3 Zrotation Yrotation Xrotation
								End Site
								{
									OFFSET 0.000000 0.000000 0.000000
								}
							}
						}
					}
				}
				JOINT RightShoulder
				{
					OFFSET -8.175920 11.883285 -3.861528
					CHANNELS 3 Zrotation Yrotation Xrotation
					JOINT RightArm
					{
						OFFSET -9.601238 3.255117 -0.914307
						CHANNELS 3 Zrotation Yrotation Xrotation
						JOINT RightForeArm
						{
							OFFSET -25.374195 -1.332924 -2.140099
							CHANNELS 3 Zrotation Yrotation Xrotation
							JOINT RightHand
							{
								OFFSET -25.529810 0.777228 -0.555919
								CHANNELS 3 Zrotation Yrotation Xrotation
								End Site
								{
									OFFSET 0.000000 0.000000 0.000000
								}
							}
						}
					}
				}
			}
		}
	}
}
MOTION
Frames: 16
Frame Time: 0.033333
-77.408798 15.199616 92.371826 -128.301119 4.126203 79.291326 12.157702 10.125804 -1.679911 -3.528561 12.539600 35.865265 -0.161589 15.143253 -30.121755 nan nan nan -13.965379 -9.180223 -8.026887 3.232191 -7.374745 12.645090 6.924639 -2.031988 1.772019 nan nan nan -4.530345 3.734112 4.015442 6.220001 -5.458285 18.195740 1.585837 1.308726 -3.840669 4.278721 -16.549170 19.976002 11.393666 -22.835383 2.553376 -13.114733 -22.498311 1.119459 -59.981515 -49.042541 30.562732 114.035983 -77.136171 -103.775267 18.240343 -27.811750 -23.509461 12.639237 19.789378 1.681604 36.367040 10.484448 3.699841 -32.338432 60.094408 -28.826429 -10.774455 14.223907 -22.252338 
-77.397491 15.219021 92.349052 -128.200049 4.133539 79.121940 12.222915 10.072016 -1.471568 -3.559665 12.463886 35.841795 -0.223989 15.099213 -30.249399 nan nan nan -14.097805 -9.263445 -7.982632 3.304156 -7.506058 13.007352 6.880511 -1.834197 1.682485 nan nan nan -4.486128 3.672105 4.078371 6.163086 -5.366834 18.427512 1.458806 1.318563 -3.959909 4.427298 -16.583724 19.848158 11.226033 -22.847639 2.746297 -13.343354 -21.897319 0.854304 -60.597751 -49.178574 31.181136 113.291646 -77.314439 -103.510211 17.808826 -28.200432 -23.722581 12.684451 19.436087 1.548404 36.275273 10.941776 3.650678 -31.822707 58.727604 -29.134030 -10.338957 14.253116 -22.726303 
-77.391029 15.239225 92.326752 -128.056802 4.146029 79.035647 12.270005 10.029360 -1.405515 -3.601567 12.378534 35.878721 -0.240728 15.083169 -30.297934 nan nan nan -14.168775 -9.302766 -7.942921 3.329296 -7.608433 13.241821 6.871071 -1.786970 1.626228 nan nan nan -4.514737 3.668774 4.032939 6.134493 -5.332759 18.528163 1.408450 1.322417 -3.963301 4.462788 -16.573909 19.862435 11.219647 -22.886921 2.804706 -13.390696 -21.677212 0.826793 -60.725194 -49.207869 31.298683 112.541942 -77.444690 -103.105792 17.687291 -28.337708 -23.885236 12.687226 19.316409 1.560038 36.310455 10.988576 3.645387 -31.514346 58.413948 -29.205856 -10.221021 14.314758 -23.103253 
-77.479904 15.213149 92.115349 -127.679745 4.791846 80.322316 12.767294 10.380767 -3.392676 -2.743173 12.741771 37.099176 -0.579268 13.558678 -30.274534 nan nan nan -13.478427 -9.546866 -9.263660 3.127847 -8.407789 13.609918 7.302555 -1.433048 1.451987 nan nan nan -6.121616 4.398552 6.288574 8.489123 -4.909922 14.379070 2.744715 1.577474 -5.741217 4.134171 -17.637064 18.856692 10.179743 -23.914418 5.241701 -13.881100 -19.460115 2.622268 -67.984198 -50.627314 38.415876 101.615124 -76.943646 -84.391910 31.432156 -28.635777 -32.592552 13.561302 13.106336 -1.943646 29.761053 12.526479 -8.952435 -68.867064 38.502242 -66.695337 -29.791826 11.527635 -28.863841 
-77.456947 15.182970 92.125984 -127.553666 4.798143 80.289768 12.814324 10.309875 -3.486818 -2.888062 11.968367 37.190717 -0.720689 13.252246 -29.963905 nan nan nan -13.467304 -9.544792 -9.239326 3.071939 -8.187340 13.698052 7.421270 -1.621841 1.313711 nan nan nan -6.344367 4.531415 6.329771 8.505219 -4.861282 13.886293 2.912104 1.452583 -5.164422 4.252391 -17.570770 18.646461 10.539710 -23.824414 5.100958 -13.426724 -19.683396 2.371464 -67.856288 -50.420557 38.153128 101.749975 -77.160269 -84.099486 35.853362 -27.779437 -33.641582 13.446917 12.971923 -2.187340 29.627428 12.222454 -9.256319 -68.193154 39.191162 -66.284703 -33.615624 11.510403 -29.093301 
-77.355263 15.129151 92.119766 -127.624590 4.280691 79.442087 12.590596 9.490721 -2.412898 -1.801715 14.324234 37.209538 -0.253393 11.472233 -29.675991 nan nan nan -14.180275 -9.116808 -8.599229 2.542451 -9.477086 14.288688 7.430628 0.363664 1.013990 nan nan nan -6.504781 3.802858 8.643283 7.621828 -5.638160 16.460591 1.994694 2.234332 -9.705262 6.632267 -14.928781 17.457499 9.585538 -25.663048 6.049709 -10.550063 -16.019732 0.188017 -73.458248 -49.307261 42.184553 100.043526 -75.494461 -85.342128 -5.627784 -36.739785 -23.009033 14.770705 12.530557 -1.662960 29.973908 13.611360 -6.574439 -69.379249 39.058740 -64.103600 9.898161 18.049557 -17.230999 
-77.340538 15.080251 92.140793 -127.514394 4.369606 79.460567 12.691399 9.480908 -2.578804 -1.671985 14.470414 37.358422 -0.313719 11.302403 -29.639851 nan nan nan -14.089443 -8.970427 -8.656239 2.445736 -9.426916 14.440460 7.441984 0.423635 0.954002 nan nan nan -6.461287 3.759761 8.472352 7.589782 -5.636035 16.829223 1.954103 2.194998 -9.988936 6.889733 -14.665332 17.175309 9.362857 -25.851290 6.081784 -10.391733 -15.618456 0.078745 -73.999129 -49.201232 42.494655 98.949417 -75.654360 -84.438247 -10.074578 -36.842577 -20.860097 14.706470 12.412354 -1.545277 30.076985 13.664500 -6.461435 -69.119210 38.316608 -64.807107 12.761354 18.734869 -18.400895 
-77.329468 15.044817 92.152473 -127.361008 4.444136 79.478633 12.760203 9.470326 -2.723032 -1.705617 14.327773 37.441830 -0.332457 11.306913 -29.624664 nan nan nan -14.056926 -8.999251 -8.720657 2.471562 -9.278038 14.609656 7.455284 0.366072 0.853156 nan nan nan -6.384621 3.736164 8.354462 7.542728 -5.607805 16.665843 1.919140 2.142382 -9.776030 6.826257 -14.772055 16.949282 9.281843 -25.759233 6.216081 -10.339997 -15.506367 0.119683 -74.038877 -49.096018 42.399537 98.415222 -75.911826 -84.125623 -8.636842 -36.706201 -21.651153 14.611651 12.156633 -1.508406 30.113893 13.500677 -6.686032 -68.445533 38.860806 -64.739841 11.728365 18.839205 -18.709372 
-77.308083 15.030290 92.190796 -127.255300 4.394562 79.185964 12.779727 9.589505 -2.459625 -1.721865 14.112937 37.454542 -0.641437 11.114277 -29.644822 nan nan nan -14.142459 -9.265377 -8.522943 2.362291 -9.095457 14.867333 7.670627 0.621021 0.606245 nan nan nan -6.591038 3.779589 8.885275 7.411369 -5.510770 15.850545 1.968757 2.421158 -9.141487 7.300879 -14.708562 16.473546 9.486410 -26.197624 6.314763 -9.863872 -15.511464 -0.238978 -75.457532 -49.300711 43.351285 96.237485 -76.123970 -82.635257 -1.949569 -37.869723 -24.463610 15.006021 11.651673 -1.986853 29.647784 13.089449 -7.284741 -67.283124 40.225710 -64.048258 9.286792 18.807854 -17.323841 
-77.283546 15.011116 92.191414 -127.186636 4.379600 79.200455 12.761632 9.647834 -2.531067 -1.702706 14.004853 37.464982 -0.666914 11.067010 -29.675668 nan nan nan -14.169224 -9.336544 -8.674193 2.306085 -9.059178 15.114918 7.707517 0.661147 0.463218 nan nan nan -6.582934 3.750856 8.787124 7.334825 -5.451749 15.702740 1.874757 2.434154 -8.928101 7.347868 -14.743690 16.235101 9.524705 -26.209761 6.377100 -9.828412 -15.271473 -0.317738 -75.622916 -49.186211 43.355091 94.980772 -76.613218 -81.296129 -1.215628 -37.719389 -24.357212 15.144456 11.297287 -1.984419 29.658079 13.171618 -7.528439 -66.706521 40.670189 -63.942733 7.533259 18.562912 -16.795763 
-77.269875 14.989681 92.179832 -127.104396 4.407314 79.164850 12.789277 9.656708 -2.553368 -1.670461 13.911906 37.487936 -0.657134 10.964746 -29.671169 nan nan nan -14.159032 -9.307007 -8.685977 2.225155 -9.124862 15.239025 7.722233 0.733076 0.314793 nan nan nan -6.443400 3.611109 8.784175 7.319154 -5.433001 15.690626 1.832864 2.211323 -8.837069 7.160469 -14.472672 16.111326 9.535681 -26.276615 6.073337 -9.863305 -14.622133 -0.551460 -75.839622 -48.914056 43.399911 94.463665 -76.951697 -80.624993 -1.441223 -37.718104 -23.845705 14.946359 11.192400 -1.769179 29.950084 13.688619 -7.539508 -66.235193 40.645038 -63.587144 7.970686 18.680656 -16.857435 
-77.256538 14.976318 92.192978 -127.013371 4.480267 79.162924 12.851345 9.619322 -2.596928 -1.722823 13.770754 37.479612 -0.696810 11.036273 -29.684937 nan nan nan -14.108284 -9.247735 -8.631064 2.243346 -9.084812 15.183419 7.666057 0.645721 0.235677 nan nan nan -6.477234 3.676866 8.703282 7.310301 -5.357769 15.633600 1.845690 2.314511 -8.774183 7.295335 -14.984180 15.859082 9.384098 -26.349436 6.355685 -9.812372 -14.824888 -0.424251 -75.962530 -48.806123 43.507017 93.087854 -77.000748 -79.164378 -1.289347 -37.783573 -24.173349 15.152846 10.964580 -2.124347 29.952627 13.431503 -7.301942 -65.759482 40.477547 -63.065780 7.693538 18.763033 -16.981042 
-77.251244 14.974251 92.203148 -126.928294 4.561950 79.149957 12.934338 9.603035 -2.629958 -1.789315 13.634386 37.508247 -0.726788 11.100131 -29.692921 nan nan nan -14.079757 -9.193412 -8.557975 2.317372 -9.054614 15.178645 7.615682 0.621064 0.134787 nan nan nan -6.510786 3.762869 8.532222 7.389704 -5.307677 15.753613 1.912243 2.254389 -8.694744 7.318228 -15.132158 15.668036 9.323281 -26.410190 6.288175 -9.810747 -14.818352 -0.319423 -76.086493 -48.705210 43.559483 92.306789 -77.068949 -78.341413 -0.886441 -37.760600 -24.502280 15.226238 10.886198 -2.193968 29.968884 13.300776 -7.126399 -65.512099 40.198142 -62.787641 7.020071 18.918738 -17.585572 
-77.267365 14.980931 92.217812 -126.787771 4.623322 79.106762 13.000751 9.576105 -2.602967 -1.843709 13.506252 37.508944 -0.733078 11.126855 -29.686860 nan nan nan -14.089617 -9.164875 -8.341001 2.418421 -9.024905 15.037395 7.538183 0.568087 0.001519 nan nan nan -6.535100 3.801528 8.479763 7.434851 -5.264825 15.608989 1.993187 2.191407 -8.449698 7.232919 -15.230618 15.592585 9.398378 -26.383694 6.202677 -9.880672 -14.800352 -0.255700 -76.194543 -48.529809 43.565475 91.401629 -77.158417 -77.316692 -0.452608 -37.731937 -24.647967 15.251322 10.844098 -2.273255 30.044540 13.043153 -7.025310 -65.233015 40.112952 -62.803257 7.286475 19.330660 -18.437882 
-77.272659 15.004094 92.222542 -126.659775 4.656699 79.082901 13.069287 9.528462 -2.596405 -1.851368 13.490554 37.549681 -0.785426 10.924098 -29.736457 nan nan nan -14.079773 -9.150987 -8.158826 2.436856 -9.025367 14.899481 7.464960 0.524860 -0.188993 nan nan nan -6.420016 3.421532 8.844347 7.220665 -5.391130 14.716516 1.851810 2.473366 -8.006977 7.057500 -15.098498 15.790508 9.566769 -26.295844 6.270711 -9.762069 -14.360517 -0.211670 -76.343436 -48.254198 43.537093 90.930553 -77.374891 -76.675289 -0.635297 -37.900128 -24.348716 15.490120 10.738428 -2.018287 30.202896 13.192087 -7.136423 -64.882444 40.289082 -62.632506 9.143814 19.715447 -18.335414 
-77.278908 15.024313 92.217232 -126.582631 4.718194 79.042140 13.188574 9.558170 -2.575139 -1.852027 13.460663 37.636241 -0.851566 10.751097 -29.821247 nan nan nan -14.011102 -9.177049 -8.004958 2.380003 -9.070881 14.800662 7.425889 0.476183 -0.338736 nan nan nan -6.337696 3.263427 8.959457 7.155173 -5.427771 14.441140 1.789113 2.573783 -7.855699 7.023251 -14.929844 15.785317 9.591485 -26.287448 6.241943 -9.729505 -14.128874 -0.176899 -76.292061 -48.070134 43.419943 90.550621 -77.616465 -76.209281 -0.609748 -37.996429 -24.009720 15.594001 10.659516 -1.863192 30.299947 13.279775 -7.178843 -64.589861 40.274221 -62.384454 9.002797 19.785422 -18.308812 
